<mxfile host="app.diagrams.net" modified="2021-10-14T20:12:43.259Z" agent="5.0 (X11)" etag="rErTHBqJdokhMEbgrGuM" version="15.5.2" type="github">
  <diagram id="Ua-j1nPOZZkzX2LIIaFo" name="Page-1">
    <mxGraphModel dx="585" dy="1332" grid="1" gridSize="10" guides="1" tooltips="1" connect="1" arrows="1" fold="1" page="1" pageScale="1" pageWidth="3600" pageHeight="2400" math="0" shadow="0">
      <root>
        <mxCell id="0" />
        <mxCell id="1" parent="0" />
        <mxCell id="Y53Zl_kb5Dj0smU17HCD-1" value="Instruction Memory" style="whiteSpace=wrap;html=1;aspect=fixed;" vertex="1" parent="1">
          <mxGeometry x="330" y="580" width="140" height="140" as="geometry" />
        </mxCell>
      </root>
    </mxGraphModel>
  </diagram>
</mxfile>
